<?xml version="1.0" encoding="iso-8859-1"?>
<!-- Uploaded to: SVG Repo, www.svgrepo.com, Generator: SVG Repo Mixer Tools -->
<svg fill="#000000" height="800px" width="800px" version="1.1" id="Layer_1" xmlns="http://www.w3.org/2000/svg" xmlns:xlink="http://www.w3.org/1999/xlink" 
	 viewBox="0 0 512.072 512.072" xml:space="preserve">
<g transform="translate(-1)">
	<g>
		<g>
			<path d="M509.453,308.202l-85.333-128c-8.444-12.666-27.057-12.666-35.501,0l-24.916,37.374v-46.874
				c18.087,0,27.968-21.096,16.389-34.991l-106.667-128c-8.529-10.235-24.248-10.235-32.777,0l-106.667,128
				c-11.579,13.895-1.698,34.991,16.389,34.991v46.874l-24.916-37.374c-8.444-12.666-27.057-12.666-35.501,0l-85.333,128
				c-9.451,14.177,0.712,33.167,17.75,33.167v149.333c0,11.782,9.551,21.333,21.333,21.333h128h170.667h128
				c11.782,0,21.333-9.551,21.333-21.333V341.369C508.741,341.369,518.904,322.379,509.453,308.202z M406.369,230.495l45.472,68.207
				h-88.138v-4.207L406.369,230.495z M257.036,54.693l61.119,73.343H195.917L257.036,54.693z M107.703,230.495l42.667,64v4.208
				H62.231L107.703,230.495z M65.036,341.369h85.333v128H65.036V341.369z M193.036,320.036v-32V170.703h128v117.333v32v149.333
				h-42.667v-42.667c0-11.782-9.551-21.333-21.333-21.333c-11.782,0-21.333,9.551-21.333,21.333v42.667h-42.667V320.036z
				 M449.036,469.369h-85.333v-128h85.333V469.369z"/>
			<path d="M107.703,362.703c-11.782,0-21.333,9.551-21.333,21.333v21.333c0,11.782,9.551,21.333,21.333,21.333
				c11.782,0,21.333-9.551,21.333-21.333v-21.333C129.036,372.254,119.485,362.703,107.703,362.703z"/>
			<path d="M406.369,426.703c11.782,0,21.333-9.551,21.333-21.333v-21.333c0-11.782-9.551-21.333-21.333-21.333
				c-11.782,0-21.333,9.551-21.333,21.333v21.333C385.036,417.151,394.587,426.703,406.369,426.703z"/>
			<path d="M257.036,341.369c11.782,0,21.333-9.551,21.333-21.333v-21.333c0-11.782-9.551-21.333-21.333-21.333
				c-11.782,0-21.333,9.551-21.333,21.333v21.333C235.703,331.818,245.254,341.369,257.036,341.369z"/>
			<path d="M257.036,256.036c11.782,0,21.333-9.551,21.333-21.333v-21.333c0-11.782-9.551-21.333-21.333-21.333
				c-11.782,0-21.333,9.551-21.333,21.333v21.333C235.703,246.485,245.254,256.036,257.036,256.036z"/>
		</g>
	</g>
</g>
</svg>