<?xml version="1.0" encoding="iso-8859-1"?>
<!-- Uploaded to: SVG Repo, www.svgrepo.com, Generator: SVG Repo Mixer Tools -->
<!DOCTYPE svg PUBLIC "-//W3C//DTD SVG 1.1//EN" "http://www.w3.org/Graphics/SVG/1.1/DTD/svg11.dtd">
<svg fill="#000000" height="800px" width="800px" version="1.1" id="Capa_1" xmlns="http://www.w3.org/2000/svg" xmlns:xlink="http://www.w3.org/1999/xlink" 
	 viewBox="0 0 489.741 489.741" xml:space="preserve">
<path d="M468.365,277.174h12.201c4.205,0,7.614-3.409,7.614-7.605v-13.627v-7.98v-7.646v-18.214c0-0.932-0.748-1.681-1.689-1.681
	h-13.349c-0.939,0-1.686,0.749-1.686,1.681v18.214h-8.237h-6.515v-18.206c0-0.932-0.748-1.68-1.688-1.68h-13.35
	c-0.939,0-1.689,0.749-1.689,1.68v18.206H425.23l0.018-18.214c0-0.446-0.177-0.876-0.496-1.187
	c-0.317-0.318-0.747-0.494-1.193-0.494h-13.364c-0.925,0-1.673,0.749-1.673,1.681l-0.016,18.214h-14.752v-18.206
	c0-0.932-0.748-1.68-1.686-1.68h-13.35c-0.923,0-1.672,0.749-1.672,1.68v18.206h-6.5h-8.249v-18.214
	c0-0.932-0.749-1.681-1.688-1.681h-13.35c-0.939,0-1.688,0.749-1.688,1.681v25.86h0.015v7.98v13.627
	c0,4.197,3.409,7.605,7.616,7.605h12.201l-6.357,53.21h-15.896V303.13c0-1.927-1.561-3.489-3.488-3.489h-23.734
	c-1.928,0-3.489,1.561-3.489,3.489v27.253h-18.844V219.608h14.623c4.205,0,7.614-3.408,7.614-7.606c0-15.857,0-50.82,0-49.745
	c0-1.919-1.561-3.48-3.488-3.48h-15.26c-1.926,0-3.489,1.561-3.489,3.48v26.282L249.507,36.127c-0.431-1.49-1.802-2.517-3.345-2.517
	c-1.546,0-2.917,1.027-3.346,2.517l-44.09,152.413v-26.282c0-1.919-1.562-3.48-3.488-3.48h-15.26c-1.929,0-3.488,1.561-3.488,3.48
	c0,15.044,0,22.205,0,25.366c0,1.608,0,2.191,0,2.222c0,2.868,0,9.096,0,22.157c0,4.198,3.406,7.606,7.597,7.606h14.64v110.776
	h-18.844v-26.41c0-1.927-1.562-3.489-3.488-3.489H152.66c-1.927,0-3.488,1.562-3.488,3.489v26.41h-18.414l-6.354-53.21h12.201
	c4.188,0,7.597-3.409,7.597-7.605v-13.627v-7.98v-7.646v-18.214c0-0.932-0.748-1.681-1.689-1.681h-13.348
	c-0.941,0-1.689,0.749-1.689,1.681v18.214h-8.234h-6.515v-18.206c0-0.932-0.749-1.68-1.673-1.68H97.676
	c-0.926,0-1.674,0.749-1.674,1.68v18.206H81.268v-18.214c0-0.932-0.748-1.681-1.688-1.681H66.232c-0.939,0-1.688,0.749-1.688,1.681
	v18.214h-14.75v-18.206c0-0.932-0.748-1.68-1.688-1.68H34.772c-0.94,0-1.688,0.749-1.688,1.68v18.206H26.57h-8.251v-18.214
	c0-0.932-0.749-1.681-1.689-1.681H3.281c-0.939,0-1.688,0.749-1.688,1.681v25.86h0.017v7.98v13.627c0,4.197,3.409,7.605,7.613,7.605
	h12.154L0,456.132h489.741L468.365,277.174z"/>
</svg>